{"title":"Solo A Star Wars Story 2018 1080p BluRay AC3 5.1 x264 [MW]","magnet":"magnet:?xt=urn:btih:81d94796cefa11b0fad6c18f7f4fc1b7c5a9a5e5&dn=Solo+A+Star+Wars+Story+2018+1080p+BluRay+AC3+5.1+x264+%5BMW%5D&tr=udp%3A%2F%2Ftracker.leechers-paradise.org%3A6969&tr=udp%3A%2F%2Fzer0day.ch%3A1337&tr=udp%3A%2F%2Fopen.demonii.com%3A1337&tr=udp%3A%2F%2Ftracker.coppersurfer.tk%3A6969&tr=udp%3A%2F%2Fexodus.desync.com%3A6969","uploader":"MFreaky","categoryP":"video","categoryS":"hd___movies","size":"3698041194","seeders":"34","leechers":"99","description":" <a href=\"https://pichub.site/image/DFbDg\" rel=\"nofollow\" target=\"_NEW\">https://pichub.site/image/DFbDg</a> <a href=\"\nhttps://pichub.site/image/DFQHZ\" rel=\"nofollow\" target=\"_NEW\">\nhttps://pichub.site/image/DFQHZ</a> <a href=\"\nhttps://pichub.site/image/DFjnX\" rel=\"nofollow\" target=\"_NEW\">\nhttps://pichub.site/image/DFjnX</a> <a href=\"\nhttps://pichub.site/image/DFemI\" rel=\"nofollow\" target=\"_NEW\">\nhttps://pichub.site/image/DFemI</a> <a href=\"\nhttps://pichub.site/image/DQ4Y8\" rel=\"nofollow\" target=\"_NEW\">\nhttps://pichub.site/image/DQ4Y8</a> <a href=\"\nhttps://pichub.site/image/DQfzJ\" rel=\"nofollow\" target=\"_NEW\">\nhttps://pichub.site/image/DQfzJ</a>\r\n\r\nIMDB <a href=\"\nhttps://www.imdb.com/title/tt3778644/\" rel=\"nofollow\" target=\"_NEW\">\nhttps://www.imdb.com/title/tt3778644/</a>\r\n\r\nVideo\r\nFormat                                   : AVC\r\nFormat/Info                              : Advanced Video Codec\r\nFormat profile                           : High@L4.1\r\nFormat settings                          : CABAC / 4 Ref Frames\r\nFormat settings, CABAC                   : Yes\r\nFormat settings, RefFrames               : 4 frames\r\nCodec ID                                 : V_MPEG4/ISO/AVC\r\nDuration                                 : 2 h 14 min\r\nBit rate                                 : 3 200 kb/s\r\nWidth                                    : 1 920 pixels\r\nHeight                                   : 804 pixels\r\nDisplay aspect ratio                     : 2.40:1\r\nFrame rate mode                          : Constant\r\nFrame rate                               : 23.976 (24000/1001) FPS\r\nColor space                              : YUV\r\nChroma subsampling                       : 4:2:0\r\nBit depth                                : 8 bits\r\nScan type                                : Progressive\r\nBits/(Pixel*Frame)                       : 0.086\r\nStream size                              : 3.02 GiB (88%)\r\nWriting library                          : x264 core 155 r2901 7d0ff22\r\n\r\nAudio\r\nFormat                                   : AC-3\r\nFormat/Info                              : Audio Coding 3\r\nCodec ID                                 : A_AC3\r\nDuration                                 : 2 h 14 min\r\nBit rate mode                            : Constant\r\nBit rate                                 : 448 kb/s\r\nChannel(s)                               : 6 channels\r\nChannel positions                        : Front: L C R, Side: L R, LFE\r\nSampling rate                            : 48.0 kHz\r\nFrame rate                               : 31.250 FPS (1536 SPF)\r\nBit depth                                : 16 bits\r\nCompression mode                         : Lossy\r\nStream size                              : 432 MiB (12%)\r\nLanguage                                 : English\r\nService kind                             : Complete Main","last_updated":"2018-09-11T12:06:05.126Z","parsed":{"xt":"urn:btih:81d94796cefa11b0fad6c18f7f4fc1b7c5a9a5e5","dn":"Solo A Star Wars Story 2018 1080p BluRay AC3 5.1 x264 [MW]","tr":["udp://exodus.desync.com:6969","udp://open.demonii.com:1337","udp://tracker.coppersurfer.tk:6969","udp://tracker.leechers-paradise.org:6969","udp://zer0day.ch:1337"],"infoHash":"81d94796cefa11b0fad6c18f7f4fc1b7c5a9a5e5","infoHashBuffer":{"type":"Buffer","data":[129,217,71,150,206,250,17,176,250,214,193,143,127,79,193,183,197,169,165,229]},"name":"Solo A Star Wars Story 2018 1080p BluRay AC3 5.1 x264 [MW]","announce":["udp://exodus.desync.com:6969","udp://open.demonii.com:1337","udp://tracker.coppersurfer.tk:6969","udp://tracker.leechers-paradise.org:6969","udp://zer0day.ch:1337"],"urlList":[]}}